<svg width="143" height="28" viewBox="0 0 143 28" fill="none" xmlns="http://www.w3.org/2000/svg">
<path d="M1.75 25.25L0 23.5L12.8125 10.6875C12.4375 9.8125 12.3854 8.82292 12.6562 7.71875C12.9271 6.61458 13.5208 5.625 14.4375 4.75C15.5417 3.64583 16.7708 3 18.125 2.8125C19.4792 2.625 20.5833 2.95833 21.4375 3.8125C22.2917 4.66667 22.625 5.77083 22.4375 7.125C22.25 8.47917 21.6042 9.70833 20.5 10.8125C19.625 11.7292 18.6354 12.3229 17.5312 12.5938C16.4271 12.8646 15.4375 12.8125 14.5625 12.4375L13 14L22.5 23.5L20.75 25.25L11.25 15.8125L1.75 25.25V25.25M5.4375 14.5625L1.6875 10.8125C0.5625 9.6875 0 8.34375 0 6.78125C0 5.21875 0.5625 3.875 1.6875 2.75L9.4375 10.5625L5.4375 14.5625V14.5625" fill="#EFA339"/>
<path d="M36.9414 19.6074C37.4167 19.6074 37.7878 19.5586 38.0547 19.4609C38.3281 19.3633 38.5397 19.2428 38.6895 19.0996C38.8392 18.9564 38.9694 18.8132 39.0801 18.6699C39.1842 18.5397 39.2689 18.4421 39.334 18.377C39.4056 18.3118 39.5033 18.2663 39.627 18.2402C39.7311 18.2077 39.8971 18.1882 40.125 18.1816C40.3594 18.1686 40.5905 18.1621 40.8184 18.1621C41.0527 18.1621 41.2155 18.1686 41.3066 18.1816C41.4434 18.1882 41.5378 18.2142 41.5898 18.2598C41.6419 18.3053 41.6745 18.403 41.6875 18.5527C41.707 18.7611 41.7168 19.0085 41.7168 19.2949C41.7233 19.5814 41.7201 19.8288 41.707 20.0371C41.7005 20.1022 41.6875 20.1576 41.668 20.2031C41.6549 20.2487 41.6224 20.3171 41.5703 20.4082C41.5052 20.5124 41.3783 20.6654 41.1895 20.8672C41.0007 21.0625 40.724 21.2676 40.3594 21.4824C39.9948 21.6908 39.5228 21.8698 38.9434 22.0195C38.3704 22.1693 37.6641 22.2441 36.8242 22.2441C35.9258 22.2441 35.0859 22.1302 34.3047 21.9023C33.5234 21.668 32.8366 21.2773 32.2441 20.7305C31.6582 20.1836 31.1992 19.4447 30.8672 18.5137C30.5417 17.5827 30.3789 16.4206 30.3789 15.0273C30.3789 13.4779 30.6458 12.1628 31.1797 11.082C31.7201 9.99479 32.485 9.16797 33.4746 8.60156C34.4642 8.03516 35.6361 7.75195 36.9902 7.75195C37.9408 7.75195 38.7025 7.84961 39.2754 8.04492C39.8548 8.24023 40.2943 8.47135 40.5938 8.73828C40.8932 8.9987 41.1048 9.22656 41.2285 9.42188C41.2741 9.49349 41.3066 9.55859 41.3262 9.61719C41.3457 9.66927 41.3587 9.75391 41.3652 9.87109C41.3848 10.0273 41.388 10.2552 41.375 10.5547C41.3685 10.8542 41.3457 11.1178 41.3066 11.3457C41.2806 11.4889 41.2383 11.5833 41.1797 11.6289C41.1536 11.6549 41.1081 11.6777 41.043 11.6973C40.9779 11.7168 40.8802 11.7266 40.75 11.7266C40.5417 11.7266 40.3073 11.7201 40.0469 11.707C39.7865 11.6875 39.5911 11.668 39.4609 11.6484C39.3047 11.6224 39.1908 11.5866 39.1191 11.541C39.0475 11.4889 38.9759 11.4108 38.9043 11.3066C38.7871 11.1374 38.5853 10.9421 38.2988 10.7207C38.0124 10.4993 37.5404 10.3887 36.8828 10.3887C35.9583 10.3887 35.1966 10.7467 34.5977 11.4629C33.9987 12.1725 33.6992 13.3249 33.6992 14.9199C33.6992 16.5085 34.0117 17.6868 34.6367 18.4551C35.2682 19.2233 36.0365 19.6074 36.9414 19.6074ZM47.9258 22.2441C46.2852 22.2441 44.9863 21.8079 44.0293 20.9355C43.0723 20.0632 42.5938 18.7643 42.5938 17.0391C42.5938 15.2682 43.0885 13.9466 44.0781 13.0742C45.0742 12.1953 46.4023 11.7559 48.0625 11.7559C49.6641 11.7559 50.9466 12.1888 51.9102 13.0547C52.8737 13.9141 53.3555 15.1836 53.3555 16.8633C53.3555 18.6146 52.8737 19.9492 51.9102 20.8672C50.9466 21.7852 49.6185 22.2441 47.9258 22.2441ZM48.0234 19.8809C48.7396 19.8809 49.2799 19.6595 49.6445 19.2168C50.0091 18.7676 50.1914 18.0026 50.1914 16.9219C50.1914 15.8932 50.0059 15.1706 49.6348 14.7539C49.2702 14.3307 48.7266 14.1191 48.0039 14.1191C47.3073 14.1191 46.7572 14.347 46.3535 14.8027C45.9564 15.252 45.7578 15.9844 45.7578 17C45.7578 18.0612 45.9466 18.8066 46.3242 19.2363C46.7083 19.666 47.2747 19.8809 48.0234 19.8809ZM59.75 22.2441C58.1094 22.2441 56.8105 21.8079 55.8535 20.9355C54.8965 20.0632 54.418 18.7643 54.418 17.0391C54.418 15.2682 54.9128 13.9466 55.9023 13.0742C56.8984 12.1953 58.2266 11.7559 59.8867 11.7559C61.4883 11.7559 62.7708 12.1888 63.7344 13.0547C64.6979 13.9141 65.1797 15.1836 65.1797 16.8633C65.1797 18.6146 64.6979 19.9492 63.7344 20.8672C62.7708 21.7852 61.4427 22.2441 59.75 22.2441ZM59.8477 19.8809C60.5638 19.8809 61.1042 19.6595 61.4688 19.2168C61.8333 18.7676 62.0156 18.0026 62.0156 16.9219C62.0156 15.8932 61.8301 15.1706 61.459 14.7539C61.0944 14.3307 60.5508 14.1191 59.8281 14.1191C59.1315 14.1191 58.5814 14.347 58.1777 14.8027C57.7806 15.252 57.582 15.9844 57.582 17C57.582 18.0612 57.7708 18.8066 58.1484 19.2363C58.5326 19.666 59.099 19.8809 59.8477 19.8809ZM69.8652 21.4824C69.8652 21.6777 69.8229 21.8145 69.7383 21.8926C69.6602 21.9642 69.5234 22 69.3281 22H67.3164C67.1211 22 66.9811 21.9642 66.8965 21.8926C66.8184 21.8145 66.7793 21.6777 66.7793 21.4824V8.26953C66.7793 8.11328 66.8118 7.99284 66.877 7.9082C67.1504 7.55013 67.5508 7.16276 68.0781 6.74609C68.1693 6.68099 68.2507 6.64844 68.3223 6.64844C68.4069 6.64844 68.4883 6.68099 68.5664 6.74609C68.8464 6.96094 69.0807 7.16276 69.2695 7.35156C69.4648 7.54036 69.6309 7.72591 69.7676 7.9082C69.8327 7.99284 69.8652 8.11328 69.8652 8.26953V15.9355H69.9824C70.972 15.9355 71.6426 15.7598 71.9941 15.4082C72.3522 15.0501 72.5312 14.5553 72.5312 13.9238V13.3965C72.5312 13.2402 72.5638 13.1198 72.6289 13.0352C72.9023 12.6771 73.3027 12.2897 73.8301 11.873C73.9212 11.8079 74.0026 11.7754 74.0742 11.7754C74.1589 11.7754 74.2402 11.8079 74.3184 11.873C74.5983 12.0879 74.8327 12.2897 75.0215 12.4785C75.2168 12.6673 75.3828 12.8529 75.5195 13.0352C75.5846 13.1198 75.6172 13.2402 75.6172 13.3965V13.9238C75.6172 14.2949 75.5423 14.7051 75.3926 15.1543C75.2493 15.6035 74.9857 16.0007 74.6016 16.3457C74.2174 16.6908 73.6706 16.8926 72.9609 16.9512V17C73.5078 17.2409 73.9798 17.5599 74.377 17.957C74.7741 18.3542 75.1061 18.7806 75.373 19.2363C75.64 19.6855 75.8451 20.1185 75.9883 20.5352C76.138 20.9453 76.2357 21.2936 76.2812 21.5801C76.3268 21.86 76.2324 22 75.998 22H73.4297C73.2083 22 73.0814 21.8665 73.0488 21.5996C73.0033 21.2936 72.9023 20.9355 72.7461 20.5254C72.5964 20.1087 72.3913 19.7018 72.1309 19.3047C71.877 18.9076 71.5677 18.5788 71.2031 18.3184C70.8451 18.0514 70.4382 17.918 69.9824 17.918H69.8652V21.4824ZM86.0332 21.4824C86.0332 21.6777 85.9909 21.8145 85.9062 21.8926C85.8281 21.9642 85.6914 22 85.4961 22H83.416C83.2207 22 83.0807 21.9642 82.9961 21.8926C82.918 21.8145 82.8789 21.6777 82.8789 21.4824V10.6133C82.8789 9.96224 82.9375 9.44792 83.0547 9.07031C83.1784 8.6862 83.4128 8.41276 83.7578 8.25C84.1094 8.08073 84.6204 7.99609 85.291 7.99609H87.8789C91.2773 7.99609 92.9766 9.30143 92.9766 11.9121C92.9766 12.7064 92.8431 13.3574 92.5762 13.8652C92.3092 14.373 91.9772 14.7702 91.5801 15.0566C91.1829 15.3366 90.7923 15.5482 90.4082 15.6914V15.7402C90.8444 16.0267 91.2578 16.4043 91.6484 16.873C92.0456 17.3353 92.4036 17.8398 92.7227 18.3867C93.0417 18.9271 93.3118 19.4642 93.5332 19.998C93.7546 20.5254 93.9076 20.9974 93.9922 21.4141C94.0312 21.6094 94.0312 21.7559 93.9922 21.8535C93.9596 21.9512 93.849 22 93.6602 22H91.4043C91.235 22 91.0853 21.9642 90.9551 21.8926C90.8314 21.821 90.7174 21.6549 90.6133 21.3945C90.1185 20.151 89.5488 19.1387 88.9043 18.3574C88.2598 17.5697 87.638 16.9382 87.0391 16.4629C86.6549 16.1569 86.4629 15.9388 86.4629 15.8086C86.4629 15.7044 86.5247 15.5612 86.6484 15.3789C86.7266 15.2682 86.8405 15.1348 86.9902 14.9785C87.14 14.8223 87.2702 14.7051 87.3809 14.627C87.4915 14.5488 87.5794 14.5 87.6445 14.4805C87.7161 14.4609 87.8236 14.4512 87.9668 14.4512C88.4486 14.4512 88.849 14.2852 89.168 13.9531C89.4935 13.6211 89.6562 13.097 89.6562 12.3809C89.6562 11.7038 89.4837 11.209 89.1387 10.8965C88.8001 10.5775 88.3314 10.418 87.7324 10.418H87.1465C86.7168 10.418 86.4238 10.5091 86.2676 10.6914C86.1113 10.8737 86.0332 11.1862 86.0332 11.6289V21.4824ZM100.084 22.2441C98.9837 22.2441 98.0267 22.0684 97.2129 21.7168C96.3991 21.3587 95.7676 20.8053 95.3184 20.0566C94.8691 19.3079 94.6445 18.3411 94.6445 17.1562C94.6445 15.3789 95.1003 14.0345 96.0117 13.123C96.9232 12.2116 98.1341 11.7559 99.6445 11.7559C100.628 11.7559 101.458 11.9316 102.135 12.2832C102.818 12.6348 103.336 13.1198 103.688 13.7383C104.046 14.3568 104.225 15.0632 104.225 15.8574C104.225 16.6322 104.026 17.1725 103.629 17.4785C103.232 17.7845 102.652 17.9375 101.891 17.9375H97.7012C97.7533 18.6081 97.9974 19.1191 98.4336 19.4707C98.8763 19.8223 99.4753 19.998 100.23 19.998C100.829 19.998 101.308 19.9102 101.666 19.7344C102.031 19.5521 102.285 19.4089 102.428 19.3047C102.551 19.2135 102.691 19.1712 102.848 19.1777C102.971 19.1777 103.147 19.2038 103.375 19.2559C103.609 19.3014 103.84 19.3893 104.068 19.5195C104.231 19.6042 104.312 19.7214 104.312 19.8711C104.312 19.9557 104.296 20.0762 104.264 20.2324C104.244 20.3236 104.212 20.457 104.166 20.6328C104.12 20.8021 104.062 20.9616 103.99 21.1113C103.951 21.1829 103.889 21.2513 103.805 21.3164C103.674 21.4076 103.463 21.528 103.17 21.6777C102.883 21.8275 102.49 21.9577 101.988 22.0684C101.487 22.1855 100.852 22.2441 100.084 22.2441ZM97.6816 15.9355H100.865C101.197 15.9355 101.363 15.7826 101.363 15.4766C101.363 15.0143 101.217 14.627 100.924 14.3145C100.637 13.9954 100.204 13.8359 99.625 13.8359C98.9935 13.8359 98.528 14.0378 98.2285 14.4414C97.9355 14.8451 97.7533 15.3431 97.6816 15.9355ZM110.854 11.7559C111.628 11.7559 112.191 11.821 112.543 11.9512C112.895 12.0749 113.116 12.1725 113.207 12.2441C113.35 12.3353 113.461 12.4525 113.539 12.5957C113.585 12.6673 113.637 12.791 113.695 12.9668C113.754 13.1426 113.796 13.3346 113.822 13.543C113.855 13.7057 113.858 13.8229 113.832 13.8945C113.806 13.9596 113.725 14.041 113.588 14.1387C113.432 14.2428 113.259 14.3372 113.07 14.4219C112.888 14.5 112.738 14.5553 112.621 14.5879C112.523 14.6139 112.449 14.6204 112.396 14.6074C112.344 14.5944 112.273 14.5553 112.182 14.4902C112.077 14.4186 111.931 14.3405 111.742 14.2559C111.553 14.1647 111.293 14.1191 110.961 14.1191C110.538 14.1191 110.134 14.2233 109.75 14.4316C109.372 14.64 109.063 14.9525 108.822 15.3691C108.588 15.7858 108.471 16.3066 108.471 16.9316C108.471 17.8691 108.715 18.5951 109.203 19.1094C109.698 19.6237 110.359 19.8809 111.186 19.8809C111.609 19.8809 111.96 19.8385 112.24 19.7539C112.52 19.6628 112.742 19.5716 112.904 19.4805C113.035 19.4089 113.132 19.3926 113.197 19.4316C113.269 19.4642 113.324 19.526 113.363 19.6172L114.076 21.2285C114.148 21.3978 114.109 21.5182 113.959 21.5898C113.718 21.7135 113.321 21.8535 112.768 22.0098C112.214 22.166 111.531 22.2441 110.717 22.2441C109.083 22.2441 107.777 21.8112 106.801 20.9453C105.824 20.0729 105.336 18.7708 105.336 17.0391C105.336 15.9323 105.561 14.985 106.01 14.1973C106.459 13.4095 107.097 12.8073 107.924 12.3906C108.751 11.9674 109.727 11.7559 110.854 11.7559ZM114.729 8.71875C114.729 8.63411 114.755 8.55924 114.807 8.49414C114.859 8.42904 114.927 8.3444 115.012 8.24023C115.194 8.0319 115.406 7.8138 115.646 7.58594C115.887 7.35156 116.132 7.12695 116.379 6.91211C116.535 6.78841 116.652 6.72656 116.73 6.72656C116.809 6.72656 116.929 6.78841 117.092 6.91211C117.619 7.36784 118.068 7.81055 118.439 8.24023C118.524 8.33789 118.592 8.42253 118.645 8.49414C118.703 8.55924 118.732 8.63411 118.732 8.71875C118.732 8.80339 118.703 8.87826 118.645 8.94336C118.592 9.00846 118.521 9.09635 118.43 9.20703C118.254 9.40885 118.049 9.62695 117.814 9.86133C117.58 10.0892 117.339 10.3073 117.092 10.5156C117.001 10.5938 116.929 10.6458 116.877 10.6719C116.825 10.6914 116.776 10.7012 116.73 10.7012C116.685 10.7012 116.636 10.6914 116.584 10.6719C116.538 10.6458 116.464 10.5938 116.359 10.5156C116.099 10.3073 115.855 10.0892 115.627 9.86133C115.399 9.62695 115.194 9.40234 115.012 9.1875C114.927 9.08333 114.859 9.00195 114.807 8.94336C114.755 8.87826 114.729 8.80339 114.729 8.71875ZM118.264 21.4824C118.264 21.6777 118.221 21.8145 118.137 21.8926C118.059 21.9642 117.922 22 117.727 22H115.715C115.52 22 115.38 21.9642 115.295 21.8926C115.217 21.8145 115.178 21.6777 115.178 21.4824V12.5176C115.178 12.3223 115.217 12.1888 115.295 12.1172C115.38 12.0391 115.52 12 115.715 12H117.727C117.922 12 118.059 12.0391 118.137 12.1172C118.221 12.1888 118.264 12.3223 118.264 12.5176V21.4824ZM126.641 11.7559C127.591 11.7559 128.372 11.9707 128.984 12.4004C129.603 12.8236 130.062 13.4095 130.361 14.1582C130.667 14.9004 130.82 15.7533 130.82 16.7168C130.82 17.7585 130.641 18.696 130.283 19.5293C129.932 20.3626 129.411 21.0234 128.721 21.5117C128.031 22 127.174 22.2441 126.152 22.2441C125.625 22.2441 125.189 22.1823 124.844 22.0586C124.505 21.9414 124.232 21.8014 124.023 21.6387C123.822 21.4694 123.662 21.3164 123.545 21.1797H123.506V25.3398C123.506 25.4961 123.473 25.6165 123.408 25.7012C123.135 26.0592 122.734 26.4466 122.207 26.8633C122.116 26.9284 122.035 26.9609 121.963 26.9609C121.885 26.9609 121.803 26.9284 121.719 26.8633C121.439 26.6484 121.201 26.4466 121.006 26.2578C120.817 26.069 120.654 25.8835 120.518 25.7012C120.452 25.6165 120.42 25.4961 120.42 25.3398V13.2988C120.42 13.1426 120.452 13.0221 120.518 12.9375C120.654 12.7552 120.817 12.5697 121.006 12.3809C121.201 12.1921 121.439 11.9902 121.719 11.7754C121.803 11.7103 121.891 11.6777 121.982 11.6777C122.067 11.6777 122.155 11.7103 122.246 11.7754C122.52 11.9902 122.754 12.1953 122.949 12.3906C123.145 12.5859 123.317 12.7878 123.467 12.9961H123.516C123.626 12.8594 123.796 12.6934 124.023 12.498C124.251 12.3027 124.574 12.1302 124.99 11.9805C125.413 11.8307 125.964 11.7559 126.641 11.7559ZM125.439 19.7539C126.143 19.7539 126.686 19.5098 127.07 19.0215C127.461 18.5267 127.656 17.8138 127.656 16.8828C127.656 15.125 126.934 14.2461 125.488 14.2461C124.876 14.2461 124.424 14.373 124.131 14.627C123.838 14.8743 123.63 15.138 123.506 15.418V17.5371C123.506 18.1686 123.669 18.696 123.994 19.1191C124.32 19.5423 124.801 19.7539 125.439 19.7539ZM137.322 22.2441C136.222 22.2441 135.265 22.0684 134.451 21.7168C133.637 21.3587 133.006 20.8053 132.557 20.0566C132.107 19.3079 131.883 18.3411 131.883 17.1562C131.883 15.3789 132.339 14.0345 133.25 13.123C134.161 12.2116 135.372 11.7559 136.883 11.7559C137.866 11.7559 138.696 11.9316 139.373 12.2832C140.057 12.6348 140.574 13.1198 140.926 13.7383C141.284 14.3568 141.463 15.0632 141.463 15.8574C141.463 16.6322 141.264 17.1725 140.867 17.4785C140.47 17.7845 139.891 17.9375 139.129 17.9375H134.939C134.992 18.6081 135.236 19.1191 135.672 19.4707C136.115 19.8223 136.714 19.998 137.469 19.998C138.068 19.998 138.546 19.9102 138.904 19.7344C139.269 19.5521 139.523 19.4089 139.666 19.3047C139.79 19.2135 139.93 19.1712 140.086 19.1777C140.21 19.1777 140.385 19.2038 140.613 19.2559C140.848 19.3014 141.079 19.3893 141.307 19.5195C141.469 19.6042 141.551 19.7214 141.551 19.8711C141.551 19.9557 141.535 20.0762 141.502 20.2324C141.482 20.3236 141.45 20.457 141.404 20.6328C141.359 20.8021 141.3 20.9616 141.229 21.1113C141.189 21.1829 141.128 21.2513 141.043 21.3164C140.913 21.4076 140.701 21.528 140.408 21.6777C140.122 21.8275 139.728 21.9577 139.227 22.0684C138.725 22.1855 138.09 22.2441 137.322 22.2441ZM134.92 15.9355H138.104C138.436 15.9355 138.602 15.7826 138.602 15.4766C138.602 15.0143 138.455 14.627 138.162 14.3145C137.876 13.9954 137.443 13.8359 136.863 13.8359C136.232 13.8359 135.766 14.0378 135.467 14.4414C135.174 14.8451 134.992 15.3431 134.92 15.9355Z" fill="#EFA339"/>
</svg>
